<svg xmlns="http://www.w3.org/2000/svg" version="1.1" xmlns:xlink="http://www.w3.org/1999/xlink" xmlns:svgjs="http://svgjs.dev/svgjs" width="1000" height="1000"><g id="light-icon"><svg xmlns="http://www.w3.org/2000/svg" version="1.1" xmlns:xlink="http://www.w3.org/1999/xlink" xmlns:svgjs="http://svgjs.dev/svgjs" width="1000" height="1000"><g clip-path="url(#SvgjsClipPath1096)"><rect width="1000" height="1000" fill="#5000aa"></rect><g transform="matrix(1.171875,0,0,1.171875,200,200)"><svg xmlns="http://www.w3.org/2000/svg" version="1.1" xmlns:xlink="http://www.w3.org/1999/xlink" xmlns:svgjs="http://svgjs.dev/svgjs" width="512" height="512"><svg width="512" height="512" viewBox="0 0 512 512" fill="none" xmlns="http://www.w3.org/2000/svg">
<path d="M109.508 328.672H0V-0.00382565H328.637V109.616H109.508V328.672Z" fill="white"></path>
<path d="M330.424 182.691C430.483 182.691 511.606 263.814 511.606 363.873V512H401.873V374.89C401.873 329.399 365.01 292.534 319.518 292.534H182.297V182.691H330.424Z" fill="white"></path>
</svg></svg></g></g><defs><clipPath id="SvgjsClipPath1096"><rect width="1000" height="1000" x="0" y="0" rx="250" ry="250"></rect></clipPath></defs></svg></g><g id="dark-icon"><svg xmlns="http://www.w3.org/2000/svg" version="1.1" xmlns:xlink="http://www.w3.org/1999/xlink" xmlns:svgjs="http://svgjs.dev/svgjs" width="1000" height="1000"><g clip-path="url(#SvgjsClipPath1097)"><rect width="1000" height="1000" fill="#7e00e5"></rect><g transform="matrix(1.171875,0,0,1.171875,200,200)"><svg xmlns="http://www.w3.org/2000/svg" version="1.1" xmlns:xlink="http://www.w3.org/1999/xlink" xmlns:svgjs="http://svgjs.dev/svgjs" width="512" height="512"><svg width="512" height="512" viewBox="0 0 512 512" fill="none" xmlns="http://www.w3.org/2000/svg">
<path d="M109.508 328.672H0V-0.00382565H328.637V109.616H109.508V328.672Z" fill="white"></path>
<path d="M330.424 182.691C430.483 182.691 511.606 263.814 511.606 363.873V512H401.873V374.89C401.873 329.399 365.01 292.534 319.518 292.534H182.297V182.691H330.424Z" fill="white"></path>
</svg></svg></g></g><defs><clipPath id="SvgjsClipPath1097"><rect width="1000" height="1000" x="0" y="0" rx="250" ry="250"></rect></clipPath></defs></svg></g></svg>